<mxfile host="app.diagrams.net" agent="Mozilla/5.0 (Windows NT 10.0; Win64; x64) AppleWebKit/537.36 (KHTML, like Gecko) Chrome/131.0.0.0 Safari/537.36" version="25.0.0">
  <diagram id="u79es4Il742Q9jWuFX-5" name="Страница — 1">
    <mxGraphModel dx="1500" dy="807" grid="1" gridSize="10" guides="1" tooltips="1" connect="0" arrows="1" fold="1" page="1" pageScale="1" pageWidth="827" pageHeight="1169" math="0" shadow="0">
      <root>
        <mxCell id="0" />
        <mxCell id="1" parent="0" />
        <mxCell id="aN3tKXzC04nfqiko4ayI-1" value="client" style="swimlane;fontStyle=0;childLayout=stackLayout;horizontal=1;startSize=30;horizontalStack=0;resizeParent=1;resizeParentMax=0;resizeLast=0;collapsible=1;marginBottom=0;whiteSpace=wrap;html=1;" parent="1" vertex="1">
          <mxGeometry x="20" y="280" width="140" height="240" as="geometry" />
        </mxCell>
        <mxCell id="OMd99WBptiYvRUhkTEVc-2" value="first_name" style="text;strokeColor=none;fillColor=none;align=left;verticalAlign=middle;spacingLeft=4;spacingRight=4;overflow=hidden;points=[[0,0.5],[1,0.5]];portConstraint=eastwest;rotatable=0;whiteSpace=wrap;html=1;" parent="aN3tKXzC04nfqiko4ayI-1" vertex="1">
          <mxGeometry y="30" width="140" height="30" as="geometry" />
        </mxCell>
        <mxCell id="OMd99WBptiYvRUhkTEVc-3" value="last_name" style="text;strokeColor=none;fillColor=none;align=left;verticalAlign=middle;spacingLeft=4;spacingRight=4;overflow=hidden;points=[[0,0.5],[1,0.5]];portConstraint=eastwest;rotatable=0;whiteSpace=wrap;html=1;" parent="aN3tKXzC04nfqiko4ayI-1" vertex="1">
          <mxGeometry y="60" width="140" height="30" as="geometry" />
        </mxCell>
        <mxCell id="OMd99WBptiYvRUhkTEVc-4" value="middle_name" style="text;strokeColor=none;fillColor=none;align=left;verticalAlign=middle;spacingLeft=4;spacingRight=4;overflow=hidden;points=[[0,0.5],[1,0.5]];portConstraint=eastwest;rotatable=0;whiteSpace=wrap;html=1;" parent="aN3tKXzC04nfqiko4ayI-1" vertex="1">
          <mxGeometry y="90" width="140" height="30" as="geometry" />
        </mxCell>
        <mxCell id="OMd99WBptiYvRUhkTEVc-5" value="date_of_birth" style="text;strokeColor=none;fillColor=none;align=left;verticalAlign=middle;spacingLeft=4;spacingRight=4;overflow=hidden;points=[[0,0.5],[1,0.5]];portConstraint=eastwest;rotatable=0;whiteSpace=wrap;html=1;" parent="aN3tKXzC04nfqiko4ayI-1" vertex="1">
          <mxGeometry y="120" width="140" height="30" as="geometry" />
        </mxCell>
        <mxCell id="OMd99WBptiYvRUhkTEVc-6" value="address" style="text;strokeColor=none;fillColor=none;align=left;verticalAlign=middle;spacingLeft=4;spacingRight=4;overflow=hidden;points=[[0,0.5],[1,0.5]];portConstraint=eastwest;rotatable=0;whiteSpace=wrap;html=1;" parent="aN3tKXzC04nfqiko4ayI-1" vertex="1">
          <mxGeometry y="150" width="140" height="30" as="geometry" />
        </mxCell>
        <mxCell id="OMd99WBptiYvRUhkTEVc-7" value="phone_number" style="text;strokeColor=none;fillColor=none;align=left;verticalAlign=middle;spacingLeft=4;spacingRight=4;overflow=hidden;points=[[0,0.5],[1,0.5]];portConstraint=eastwest;rotatable=0;whiteSpace=wrap;html=1;" parent="aN3tKXzC04nfqiko4ayI-1" vertex="1">
          <mxGeometry y="180" width="140" height="30" as="geometry" />
        </mxCell>
        <mxCell id="OMd99WBptiYvRUhkTEVc-8" value="email" style="text;strokeColor=none;fillColor=none;align=left;verticalAlign=middle;spacingLeft=4;spacingRight=4;overflow=hidden;points=[[0,0.5],[1,0.5]];portConstraint=eastwest;rotatable=0;whiteSpace=wrap;html=1;" parent="aN3tKXzC04nfqiko4ayI-1" vertex="1">
          <mxGeometry y="210" width="140" height="30" as="geometry" />
        </mxCell>
        <mxCell id="aN3tKXzC04nfqiko4ayI-5" value="driving_exam" style="swimlane;fontStyle=0;childLayout=stackLayout;horizontal=1;startSize=30;horizontalStack=0;resizeParent=1;resizeParentMax=0;resizeLast=0;collapsible=1;marginBottom=0;whiteSpace=wrap;html=1;" parent="1" vertex="1">
          <mxGeometry x="480" y="440" width="140" height="90" as="geometry" />
        </mxCell>
        <mxCell id="QXYICF7PTkV1159MdvVa-13" value="exam_result" style="text;strokeColor=none;fillColor=none;align=left;verticalAlign=middle;spacingLeft=4;spacingRight=4;overflow=hidden;points=[[0,0.5],[1,0.5]];portConstraint=eastwest;rotatable=0;whiteSpace=wrap;html=1;" parent="aN3tKXzC04nfqiko4ayI-5" vertex="1">
          <mxGeometry y="30" width="140" height="30" as="geometry" />
        </mxCell>
        <mxCell id="TVFickZUcTSvTu-Gqf_E-2" value="video_file_path" style="text;strokeColor=none;fillColor=none;align=left;verticalAlign=middle;spacingLeft=4;spacingRight=4;overflow=hidden;points=[[0,0.5],[1,0.5]];portConstraint=eastwest;rotatable=0;whiteSpace=wrap;html=1;" parent="aN3tKXzC04nfqiko4ayI-5" vertex="1">
          <mxGeometry y="60" width="140" height="30" as="geometry" />
        </mxCell>
        <mxCell id="aN3tKXzC04nfqiko4ayI-9" value="car" style="swimlane;fontStyle=0;childLayout=stackLayout;horizontal=1;startSize=30;horizontalStack=0;resizeParent=1;resizeParentMax=0;resizeLast=0;collapsible=1;marginBottom=0;whiteSpace=wrap;html=1;" parent="1" vertex="1">
          <mxGeometry x="681" y="410" width="140" height="150" as="geometry" />
        </mxCell>
        <mxCell id="TVFickZUcTSvTu-Gqf_E-4" value="car_owner" style="text;strokeColor=none;fillColor=none;align=left;verticalAlign=middle;spacingLeft=4;spacingRight=4;overflow=hidden;points=[[0,0.5],[1,0.5]];portConstraint=eastwest;rotatable=0;whiteSpace=wrap;html=1;" parent="aN3tKXzC04nfqiko4ayI-9" vertex="1">
          <mxGeometry y="30" width="140" height="30" as="geometry" />
        </mxCell>
        <mxCell id="QXYICF7PTkV1159MdvVa-28" value="gearbox" style="text;strokeColor=none;fillColor=none;align=left;verticalAlign=middle;spacingLeft=4;spacingRight=4;overflow=hidden;points=[[0,0.5],[1,0.5]];portConstraint=eastwest;rotatable=0;whiteSpace=wrap;html=1;" parent="aN3tKXzC04nfqiko4ayI-9" vertex="1">
          <mxGeometry y="60" width="140" height="30" as="geometry" />
        </mxCell>
        <mxCell id="TVFickZUcTSvTu-Gqf_E-3" value="license_plate" style="text;strokeColor=none;fillColor=none;align=left;verticalAlign=middle;spacingLeft=4;spacingRight=4;overflow=hidden;points=[[0,0.5],[1,0.5]];portConstraint=eastwest;rotatable=0;whiteSpace=wrap;html=1;" parent="aN3tKXzC04nfqiko4ayI-9" vertex="1">
          <mxGeometry y="90" width="140" height="30" as="geometry" />
        </mxCell>
        <mxCell id="83iT9Pvqcuz7-H35d_fx-3" value="category" style="text;strokeColor=none;fillColor=none;align=left;verticalAlign=middle;spacingLeft=4;spacingRight=4;overflow=hidden;points=[[0,0.5],[1,0.5]];portConstraint=eastwest;rotatable=0;whiteSpace=wrap;html=1;" parent="aN3tKXzC04nfqiko4ayI-9" vertex="1">
          <mxGeometry y="120" width="140" height="30" as="geometry" />
        </mxCell>
        <mxCell id="aN3tKXzC04nfqiko4ayI-12" value="driving_license_status" style="swimlane;fontStyle=0;childLayout=stackLayout;horizontal=1;startSize=30;horizontalStack=0;resizeParent=1;resizeParentMax=0;resizeLast=0;collapsible=1;marginBottom=0;whiteSpace=wrap;html=1;" parent="1" vertex="1">
          <mxGeometry x="50" y="780" width="140" height="150" as="geometry" />
        </mxCell>
        <mxCell id="KzbnJ2MluUfqUTI1xRZA-12" value="status" style="text;strokeColor=none;fillColor=none;align=left;verticalAlign=middle;spacingLeft=4;spacingRight=4;overflow=hidden;points=[[0,0.5],[1,0.5]];portConstraint=eastwest;rotatable=0;whiteSpace=wrap;html=1;" parent="aN3tKXzC04nfqiko4ayI-12" vertex="1">
          <mxGeometry y="30" width="140" height="30" as="geometry" />
        </mxCell>
        <mxCell id="QXYICF7PTkV1159MdvVa-21" value="start_date" style="text;strokeColor=none;fillColor=none;align=left;verticalAlign=middle;spacingLeft=4;spacingRight=4;overflow=hidden;points=[[0,0.5],[1,0.5]];portConstraint=eastwest;rotatable=0;whiteSpace=wrap;html=1;" parent="aN3tKXzC04nfqiko4ayI-12" vertex="1">
          <mxGeometry y="60" width="140" height="30" as="geometry" />
        </mxCell>
        <mxCell id="E20tvZhMtcwppup0TUzu-3" value="end_date" style="text;strokeColor=none;fillColor=none;align=left;verticalAlign=middle;spacingLeft=4;spacingRight=4;overflow=hidden;points=[[0,0.5],[1,0.5]];portConstraint=eastwest;rotatable=0;whiteSpace=wrap;html=1;" parent="aN3tKXzC04nfqiko4ayI-12" vertex="1">
          <mxGeometry y="90" width="140" height="30" as="geometry" />
        </mxCell>
        <mxCell id="QXYICF7PTkV1159MdvVa-22" value="reason" style="text;strokeColor=none;fillColor=none;align=left;verticalAlign=middle;spacingLeft=4;spacingRight=4;overflow=hidden;points=[[0,0.5],[1,0.5]];portConstraint=eastwest;rotatable=0;whiteSpace=wrap;html=1;" parent="aN3tKXzC04nfqiko4ayI-12" vertex="1">
          <mxGeometry y="120" width="140" height="30" as="geometry" />
        </mxCell>
        <mxCell id="aN3tKXzC04nfqiko4ayI-13" value="driving_license" style="swimlane;fontStyle=0;childLayout=stackLayout;horizontal=1;startSize=30;horizontalStack=0;resizeParent=1;resizeParentMax=0;resizeLast=0;collapsible=1;marginBottom=0;whiteSpace=wrap;html=1;" parent="1" vertex="1">
          <mxGeometry x="310" y="680" width="140" height="90" as="geometry" />
        </mxCell>
        <mxCell id="QXYICF7PTkV1159MdvVa-26" value="start_date" style="text;strokeColor=none;fillColor=none;align=left;verticalAlign=middle;spacingLeft=4;spacingRight=4;overflow=hidden;points=[[0,0.5],[1,0.5]];portConstraint=eastwest;rotatable=0;whiteSpace=wrap;html=1;" parent="aN3tKXzC04nfqiko4ayI-13" vertex="1">
          <mxGeometry y="30" width="140" height="30" as="geometry" />
        </mxCell>
        <mxCell id="QXYICF7PTkV1159MdvVa-27" value="end_date" style="text;strokeColor=none;fillColor=none;align=left;verticalAlign=middle;spacingLeft=4;spacingRight=4;overflow=hidden;points=[[0,0.5],[1,0.5]];portConstraint=eastwest;rotatable=0;whiteSpace=wrap;html=1;" parent="aN3tKXzC04nfqiko4ayI-13" vertex="1">
          <mxGeometry y="60" width="140" height="30" as="geometry" />
        </mxCell>
        <mxCell id="aN3tKXzC04nfqiko4ayI-14" value="inspector" style="swimlane;fontStyle=0;childLayout=stackLayout;horizontal=1;startSize=30;horizontalStack=0;resizeParent=1;resizeParentMax=0;resizeLast=0;collapsible=1;marginBottom=0;whiteSpace=wrap;html=1;" parent="1" vertex="1">
          <mxGeometry x="700" y="585" width="140" height="120" as="geometry" />
        </mxCell>
        <mxCell id="OMd99WBptiYvRUhkTEVc-9" value="first_name" style="text;strokeColor=none;fillColor=none;align=left;verticalAlign=middle;spacingLeft=4;spacingRight=4;overflow=hidden;points=[[0,0.5],[1,0.5]];portConstraint=eastwest;rotatable=0;whiteSpace=wrap;html=1;" parent="aN3tKXzC04nfqiko4ayI-14" vertex="1">
          <mxGeometry y="30" width="140" height="30" as="geometry" />
        </mxCell>
        <mxCell id="OMd99WBptiYvRUhkTEVc-10" value="last_name" style="text;strokeColor=none;fillColor=none;align=left;verticalAlign=middle;spacingLeft=4;spacingRight=4;overflow=hidden;points=[[0,0.5],[1,0.5]];portConstraint=eastwest;rotatable=0;whiteSpace=wrap;html=1;" parent="aN3tKXzC04nfqiko4ayI-14" vertex="1">
          <mxGeometry y="60" width="140" height="30" as="geometry" />
        </mxCell>
        <mxCell id="OMd99WBptiYvRUhkTEVc-11" value="middle_name" style="text;strokeColor=none;fillColor=none;align=left;verticalAlign=middle;spacingLeft=4;spacingRight=4;overflow=hidden;points=[[0,0.5],[1,0.5]];portConstraint=eastwest;rotatable=0;whiteSpace=wrap;html=1;" parent="aN3tKXzC04nfqiko4ayI-14" vertex="1">
          <mxGeometry y="90" width="140" height="30" as="geometry" />
        </mxCell>
        <mxCell id="aN3tKXzC04nfqiko4ayI-15" value="driving_license_category" style="swimlane;fontStyle=0;childLayout=stackLayout;horizontal=1;startSize=30;horizontalStack=0;resizeParent=1;resizeParentMax=0;resizeLast=0;collapsible=1;marginBottom=0;whiteSpace=wrap;html=1;" parent="1" vertex="1">
          <mxGeometry x="310" y="800" width="140" height="90" as="geometry" />
        </mxCell>
        <mxCell id="83iT9Pvqcuz7-H35d_fx-1" value="category" style="text;strokeColor=none;fillColor=none;align=left;verticalAlign=middle;spacingLeft=4;spacingRight=4;overflow=hidden;points=[[0,0.5],[1,0.5]];portConstraint=eastwest;rotatable=0;whiteSpace=wrap;html=1;" parent="aN3tKXzC04nfqiko4ayI-15" vertex="1">
          <mxGeometry y="30" width="140" height="30" as="geometry" />
        </mxCell>
        <mxCell id="mw9f9ipdXYh-Zcs6xD-f-1" value="gearbox" style="text;strokeColor=none;fillColor=none;align=left;verticalAlign=middle;spacingLeft=4;spacingRight=4;overflow=hidden;points=[[0,0.5],[1,0.5]];portConstraint=eastwest;rotatable=0;whiteSpace=wrap;html=1;" parent="aN3tKXzC04nfqiko4ayI-15" vertex="1">
          <mxGeometry y="60" width="140" height="30" as="geometry" />
        </mxCell>
        <mxCell id="aN3tKXzC04nfqiko4ayI-16" value="service_center" style="swimlane;fontStyle=0;childLayout=stackLayout;horizontal=1;startSize=30;horizontalStack=0;resizeParent=1;resizeParentMax=0;resizeLast=0;collapsible=1;marginBottom=0;whiteSpace=wrap;html=1;" parent="1" vertex="1">
          <mxGeometry x="681" y="220" width="140" height="90" as="geometry" />
        </mxCell>
        <mxCell id="QXYICF7PTkV1159MdvVa-6" value="address" style="text;strokeColor=none;fillColor=none;align=left;verticalAlign=middle;spacingLeft=4;spacingRight=4;overflow=hidden;points=[[0,0.5],[1,0.5]];portConstraint=eastwest;rotatable=0;whiteSpace=wrap;html=1;" parent="aN3tKXzC04nfqiko4ayI-16" vertex="1">
          <mxGeometry y="30" width="140" height="30" as="geometry" />
        </mxCell>
        <mxCell id="QXYICF7PTkV1159MdvVa-7" value="number" style="text;strokeColor=none;fillColor=none;align=left;verticalAlign=middle;spacingLeft=4;spacingRight=4;overflow=hidden;points=[[0,0.5],[1,0.5]];portConstraint=eastwest;rotatable=0;whiteSpace=wrap;html=1;" parent="aN3tKXzC04nfqiko4ayI-16" vertex="1">
          <mxGeometry y="60" width="140" height="30" as="geometry" />
        </mxCell>
        <mxCell id="aN3tKXzC04nfqiko4ayI-20" value="theory_ticket" style="swimlane;fontStyle=0;childLayout=stackLayout;horizontal=1;startSize=30;horizontalStack=0;resizeParent=1;resizeParentMax=0;resizeLast=0;collapsible=1;marginBottom=0;whiteSpace=wrap;html=1;" parent="1" vertex="1">
          <mxGeometry x="480" y="117" width="140" height="90" as="geometry" />
        </mxCell>
        <mxCell id="QXYICF7PTkV1159MdvVa-8" value="datetime" style="text;strokeColor=none;fillColor=none;align=left;verticalAlign=middle;spacingLeft=4;spacingRight=4;overflow=hidden;points=[[0,0.5],[1,0.5]];portConstraint=eastwest;rotatable=0;whiteSpace=wrap;html=1;" parent="aN3tKXzC04nfqiko4ayI-20" vertex="1">
          <mxGeometry y="30" width="140" height="30" as="geometry" />
        </mxCell>
        <mxCell id="QXYICF7PTkV1159MdvVa-17" value="status" style="text;strokeColor=none;fillColor=none;align=left;verticalAlign=middle;spacingLeft=4;spacingRight=4;overflow=hidden;points=[[0,0.5],[1,0.5]];portConstraint=eastwest;rotatable=0;whiteSpace=wrap;html=1;" parent="aN3tKXzC04nfqiko4ayI-20" vertex="1">
          <mxGeometry y="60" width="140" height="30" as="geometry" />
        </mxCell>
        <mxCell id="aN3tKXzC04nfqiko4ayI-22" value="document" style="swimlane;fontStyle=0;childLayout=stackLayout;horizontal=1;startSize=30;horizontalStack=0;resizeParent=1;resizeParentMax=0;resizeLast=0;collapsible=1;marginBottom=0;whiteSpace=wrap;html=1;" parent="1" vertex="1">
          <mxGeometry x="310" y="520" width="140" height="120" as="geometry" />
        </mxCell>
        <mxCell id="aN3tKXzC04nfqiko4ayI-84" value="type" style="text;strokeColor=none;fillColor=none;align=left;verticalAlign=middle;spacingLeft=4;spacingRight=4;overflow=hidden;points=[[0,0.5],[1,0.5]];portConstraint=eastwest;rotatable=0;whiteSpace=wrap;html=1;" parent="aN3tKXzC04nfqiko4ayI-22" vertex="1">
          <mxGeometry y="30" width="140" height="30" as="geometry" />
        </mxCell>
        <mxCell id="QXYICF7PTkV1159MdvVa-3" value="end_date" style="text;strokeColor=none;fillColor=none;align=left;verticalAlign=middle;spacingLeft=4;spacingRight=4;overflow=hidden;points=[[0,0.5],[1,0.5]];portConstraint=eastwest;rotatable=0;whiteSpace=wrap;html=1;" parent="aN3tKXzC04nfqiko4ayI-22" vertex="1">
          <mxGeometry y="60" width="140" height="30" as="geometry" />
        </mxCell>
        <mxCell id="QXYICF7PTkV1159MdvVa-35" value="info_file_path" style="text;strokeColor=none;fillColor=none;align=left;verticalAlign=middle;spacingLeft=4;spacingRight=4;overflow=hidden;points=[[0,0.5],[1,0.5]];portConstraint=eastwest;rotatable=0;whiteSpace=wrap;html=1;" parent="aN3tKXzC04nfqiko4ayI-22" vertex="1">
          <mxGeometry y="90" width="140" height="30" as="geometry" />
        </mxCell>
        <mxCell id="aN3tKXzC04nfqiko4ayI-35" value="theory_exam" style="swimlane;fontStyle=0;childLayout=stackLayout;horizontal=1;startSize=30;horizontalStack=0;resizeParent=1;resizeParentMax=0;resizeLast=0;collapsible=1;marginBottom=0;whiteSpace=wrap;html=1;" parent="1" vertex="1">
          <mxGeometry x="678" y="110" width="140" height="60" as="geometry" />
        </mxCell>
        <mxCell id="nCKvvS10q3X2A3Tc1w5N-30" value="&lt;span style=&quot;color: rgba(0, 0, 0, 0); font-family: monospace; font-size: 0px; text-wrap-mode: nowrap;&quot;&gt;%3CmxGraphModel%3E%3Croot%3E%3CmxCell%20id%3D%220%22%2F%3E%3CmxCell%20id%3D%221%22%20parent%3D%220%22%2F%3E%3CmxCell%20id%3D%222%22%20value%3D%22datetime%22%20style%3D%22text%3BstrokeColor%3Dnone%3BfillColor%3Dnone%3Balign%3Dleft%3BverticalAlign%3Dmiddle%3BspacingLeft%3D4%3BspacingRight%3D4%3Boverflow%3Dhidden%3Bpoints%3D%5B%5B0%2C0.5%5D%2C%5B1%2C0.5%5D%5D%3BportConstraint%3Deastwest%3Brotatable%3D0%3BwhiteSpace%3Dwrap%3Bhtml%3D1%3B%22%20vertex%3D%221%22%20parent%3D%221%22%3E%3CmxGeometry%20x%3D%22480%22%20y%3D%22147%22%20width%3D%22140%22%20height%3D%2230%22%20as%3D%22geometry%22%2F%3E%3C%2FmxCell%3E%3C%2Froot%3E%3C%2FmxGraphModel%3E&lt;/span&gt;" style="text;strokeColor=none;fillColor=none;align=left;verticalAlign=middle;spacingLeft=4;spacingRight=4;overflow=hidden;points=[[0,0.5],[1,0.5]];portConstraint=eastwest;rotatable=0;whiteSpace=wrap;html=1;" parent="aN3tKXzC04nfqiko4ayI-35" vertex="1">
          <mxGeometry y="30" width="140" height="30" as="geometry" />
        </mxCell>
        <mxCell id="aN3tKXzC04nfqiko4ayI-56" value="driving_ticket" style="swimlane;fontStyle=0;childLayout=stackLayout;horizontal=1;startSize=30;horizontalStack=0;resizeParent=1;resizeParentMax=0;resizeLast=0;collapsible=1;marginBottom=0;whiteSpace=wrap;html=1;" parent="1" vertex="1">
          <mxGeometry x="480" y="227" width="140" height="180" as="geometry" />
        </mxCell>
        <mxCell id="QXYICF7PTkV1159MdvVa-11" value="datetime" style="text;strokeColor=none;fillColor=none;align=left;verticalAlign=middle;spacingLeft=4;spacingRight=4;overflow=hidden;points=[[0,0.5],[1,0.5]];portConstraint=eastwest;rotatable=0;whiteSpace=wrap;html=1;" parent="aN3tKXzC04nfqiko4ayI-56" vertex="1">
          <mxGeometry y="30" width="140" height="30" as="geometry" />
        </mxCell>
        <mxCell id="QXYICF7PTkV1159MdvVa-18" value="status" style="text;strokeColor=none;fillColor=none;align=left;verticalAlign=middle;spacingLeft=4;spacingRight=4;overflow=hidden;points=[[0,0.5],[1,0.5]];portConstraint=eastwest;rotatable=0;whiteSpace=wrap;html=1;" parent="aN3tKXzC04nfqiko4ayI-56" vertex="1">
          <mxGeometry y="60" width="140" height="30" as="geometry" />
        </mxCell>
        <mxCell id="QXYICF7PTkV1159MdvVa-19" value="gearbox" style="text;strokeColor=none;fillColor=none;align=left;verticalAlign=middle;spacingLeft=4;spacingRight=4;overflow=hidden;points=[[0,0.5],[1,0.5]];portConstraint=eastwest;rotatable=0;whiteSpace=wrap;html=1;" parent="aN3tKXzC04nfqiko4ayI-56" vertex="1">
          <mxGeometry y="90" width="140" height="30" as="geometry" />
        </mxCell>
        <mxCell id="QXYICF7PTkV1159MdvVa-20" value="car_owner" style="text;strokeColor=none;fillColor=none;align=left;verticalAlign=middle;spacingLeft=4;spacingRight=4;overflow=hidden;points=[[0,0.5],[1,0.5]];portConstraint=eastwest;rotatable=0;whiteSpace=wrap;html=1;" parent="aN3tKXzC04nfqiko4ayI-56" vertex="1">
          <mxGeometry y="120" width="140" height="30" as="geometry" />
        </mxCell>
        <mxCell id="83iT9Pvqcuz7-H35d_fx-2" value="category" style="text;strokeColor=none;fillColor=none;align=left;verticalAlign=middle;spacingLeft=4;spacingRight=4;overflow=hidden;points=[[0,0.5],[1,0.5]];portConstraint=eastwest;rotatable=0;whiteSpace=wrap;html=1;" parent="aN3tKXzC04nfqiko4ayI-56" vertex="1">
          <mxGeometry y="150" width="140" height="30" as="geometry" />
        </mxCell>
        <mxCell id="KzbnJ2MluUfqUTI1xRZA-1" value="fine" style="swimlane;fontStyle=0;childLayout=stackLayout;horizontal=1;startSize=30;horizontalStack=0;resizeParent=1;resizeParentMax=0;resizeLast=0;collapsible=1;marginBottom=0;whiteSpace=wrap;html=1;" parent="1" vertex="1">
          <mxGeometry x="50" y="615" width="140" height="150" as="geometry" />
        </mxCell>
        <mxCell id="KzbnJ2MluUfqUTI1xRZA-2" value="status" style="text;strokeColor=none;fillColor=none;align=left;verticalAlign=middle;spacingLeft=4;spacingRight=4;overflow=hidden;points=[[0,0.5],[1,0.5]];portConstraint=eastwest;rotatable=0;whiteSpace=wrap;html=1;" parent="KzbnJ2MluUfqUTI1xRZA-1" vertex="1">
          <mxGeometry y="30" width="140" height="30" as="geometry" />
        </mxCell>
        <mxCell id="OMd99WBptiYvRUhkTEVc-12" value="issued_date" style="text;strokeColor=none;fillColor=none;align=left;verticalAlign=middle;spacingLeft=4;spacingRight=4;overflow=hidden;points=[[0,0.5],[1,0.5]];portConstraint=eastwest;rotatable=0;whiteSpace=wrap;html=1;" parent="KzbnJ2MluUfqUTI1xRZA-1" vertex="1">
          <mxGeometry y="60" width="140" height="30" as="geometry" />
        </mxCell>
        <mxCell id="KzbnJ2MluUfqUTI1xRZA-3" value="reason" style="text;strokeColor=none;fillColor=none;align=left;verticalAlign=middle;spacingLeft=4;spacingRight=4;overflow=hidden;points=[[0,0.5],[1,0.5]];portConstraint=eastwest;rotatable=0;whiteSpace=wrap;html=1;" parent="KzbnJ2MluUfqUTI1xRZA-1" vertex="1">
          <mxGeometry y="90" width="140" height="30" as="geometry" />
        </mxCell>
        <mxCell id="KzbnJ2MluUfqUTI1xRZA-4" value="sum" style="text;strokeColor=none;fillColor=none;align=left;verticalAlign=middle;spacingLeft=4;spacingRight=4;overflow=hidden;points=[[0,0.5],[1,0.5]];portConstraint=eastwest;rotatable=0;whiteSpace=wrap;html=1;" parent="KzbnJ2MluUfqUTI1xRZA-1" vertex="1">
          <mxGeometry y="120" width="140" height="30" as="geometry" />
        </mxCell>
        <mxCell id="FgHdjAljMrV4In-tT4Xe-10" value="" style="edgeStyle=entityRelationEdgeStyle;fontSize=12;html=1;endArrow=ERzeroToOne;startArrow=ERmandOne;rounded=0;exitX=1;exitY=0.25;exitDx=0;exitDy=0;" parent="1" source="aN3tKXzC04nfqiko4ayI-20" target="aN3tKXzC04nfqiko4ayI-35" edge="1">
          <mxGeometry width="100" height="100" relative="1" as="geometry">
            <mxPoint x="720" y="47" as="sourcePoint" />
            <mxPoint x="660" y="129.5" as="targetPoint" />
            <Array as="points">
              <mxPoint x="720" y="127" />
            </Array>
          </mxGeometry>
        </mxCell>
        <mxCell id="FgHdjAljMrV4In-tT4Xe-11" value="" style="edgeStyle=entityRelationEdgeStyle;fontSize=12;html=1;endArrow=ERzeroToMany;startArrow=ERmandOne;rounded=0;entryX=1;entryY=0.5;entryDx=0;entryDy=0;exitX=0;exitY=0.25;exitDx=0;exitDy=0;" parent="1" source="aN3tKXzC04nfqiko4ayI-16" target="QXYICF7PTkV1159MdvVa-17" edge="1">
          <mxGeometry width="100" height="100" relative="1" as="geometry">
            <mxPoint x="790" y="237" as="sourcePoint" />
            <mxPoint x="790" y="167" as="targetPoint" />
            <Array as="points">
              <mxPoint x="630" y="236" />
              <mxPoint x="520" y="236" />
              <mxPoint x="640" y="356" />
              <mxPoint x="520" y="296" />
            </Array>
          </mxGeometry>
        </mxCell>
        <mxCell id="FgHdjAljMrV4In-tT4Xe-13" value="" style="edgeStyle=entityRelationEdgeStyle;fontSize=12;html=1;endArrow=ERzeroToMany;startArrow=ERmandOne;rounded=0;" parent="1" source="aN3tKXzC04nfqiko4ayI-16" target="aN3tKXzC04nfqiko4ayI-56" edge="1">
          <mxGeometry width="100" height="100" relative="1" as="geometry">
            <mxPoint x="690" y="312" as="sourcePoint" />
            <mxPoint x="630" y="162" as="targetPoint" />
            <Array as="points">
              <mxPoint x="640" y="246" />
              <mxPoint x="530" y="246" />
              <mxPoint x="650" y="366" />
              <mxPoint x="530" y="306" />
            </Array>
          </mxGeometry>
        </mxCell>
        <mxCell id="FgHdjAljMrV4In-tT4Xe-16" value="" style="edgeStyle=entityRelationEdgeStyle;fontSize=12;html=1;endArrow=ERzeroToMany;startArrow=ERmandOne;rounded=0;" parent="1" source="aN3tKXzC04nfqiko4ayI-16" target="aN3tKXzC04nfqiko4ayI-14" edge="1">
          <mxGeometry width="100" height="100" relative="1" as="geometry">
            <mxPoint x="690" y="346" as="sourcePoint" />
            <mxPoint x="630" y="366" as="targetPoint" />
            <Array as="points">
              <mxPoint x="650" y="290" />
              <mxPoint x="540" y="290" />
              <mxPoint x="660" y="410" />
              <mxPoint x="540" y="350" />
            </Array>
          </mxGeometry>
        </mxCell>
        <mxCell id="FgHdjAljMrV4In-tT4Xe-18" value="" style="edgeStyle=entityRelationEdgeStyle;fontSize=12;html=1;endArrow=ERzeroToOne;startArrow=ERmandOne;rounded=0;exitX=1;exitY=0.5;exitDx=0;exitDy=0;entryX=1;entryY=0.25;entryDx=0;entryDy=0;" parent="1" source="QXYICF7PTkV1159MdvVa-20" target="aN3tKXzC04nfqiko4ayI-5" edge="1">
          <mxGeometry width="100" height="100" relative="1" as="geometry">
            <mxPoint x="486" y="145" as="sourcePoint" />
            <mxPoint x="590" y="267" as="targetPoint" />
          </mxGeometry>
        </mxCell>
        <mxCell id="FgHdjAljMrV4In-tT4Xe-19" value="" style="edgeStyle=entityRelationEdgeStyle;fontSize=12;html=1;endArrow=ERzeroToMany;startArrow=ERmandOne;rounded=0;entryX=0;entryY=0.25;entryDx=0;entryDy=0;" parent="1" source="aN3tKXzC04nfqiko4ayI-1" target="aN3tKXzC04nfqiko4ayI-56" edge="1">
          <mxGeometry width="100" height="100" relative="1" as="geometry">
            <mxPoint x="250" y="149" as="sourcePoint" />
            <mxPoint x="346" y="107" as="targetPoint" />
            <Array as="points">
              <mxPoint x="340" y="124" />
              <mxPoint x="120" y="284" />
              <mxPoint x="130" y="224" />
              <mxPoint x="230" y="124" />
              <mxPoint x="200" y="164" />
              <mxPoint x="300" y="354" />
              <mxPoint x="350" y="244" />
              <mxPoint x="230" y="184" />
            </Array>
          </mxGeometry>
        </mxCell>
        <mxCell id="FgHdjAljMrV4In-tT4Xe-20" value="" style="edgeStyle=entityRelationEdgeStyle;fontSize=12;html=1;endArrow=ERzeroToMany;startArrow=ERmandOne;rounded=0;exitX=1;exitY=0.5;exitDx=0;exitDy=0;" parent="1" source="OMd99WBptiYvRUhkTEVc-3" target="aN3tKXzC04nfqiko4ayI-20" edge="1">
          <mxGeometry width="100" height="100" relative="1" as="geometry">
            <mxPoint x="-180" y="164" as="sourcePoint" />
            <mxPoint x="40" y="302" as="targetPoint" />
            <Array as="points">
              <mxPoint x="350" y="134" />
              <mxPoint x="130" y="294" />
              <mxPoint x="140" y="234" />
              <mxPoint x="240" y="134" />
              <mxPoint x="210" y="174" />
              <mxPoint x="310" y="364" />
              <mxPoint x="360" y="254" />
              <mxPoint x="240" y="194" />
            </Array>
          </mxGeometry>
        </mxCell>
        <mxCell id="FgHdjAljMrV4In-tT4Xe-27" value="" style="edgeStyle=entityRelationEdgeStyle;fontSize=12;html=1;endArrow=ERzeroToMany;startArrow=ERzeroToOne;rounded=0;" parent="1" source="aN3tKXzC04nfqiko4ayI-9" target="aN3tKXzC04nfqiko4ayI-5" edge="1">
          <mxGeometry width="100" height="100" relative="1" as="geometry">
            <mxPoint x="240" y="647" as="sourcePoint" />
            <mxPoint x="240" y="537" as="targetPoint" />
            <Array as="points">
              <mxPoint x="40" y="522" />
              <mxPoint x="30" y="692" />
            </Array>
          </mxGeometry>
        </mxCell>
        <mxCell id="FgHdjAljMrV4In-tT4Xe-34" value="" style="edgeStyle=entityRelationEdgeStyle;fontSize=12;html=1;endArrow=ERoneToMany;startArrow=ERmandOne;rounded=0;entryX=1.004;entryY=0.361;entryDx=0;entryDy=0;entryPerimeter=0;exitX=0;exitY=0.5;exitDx=0;exitDy=0;" parent="1" source="OMd99WBptiYvRUhkTEVc-11" target="QXYICF7PTkV1159MdvVa-26" edge="1">
          <mxGeometry width="100" height="100" relative="1" as="geometry">
            <mxPoint x="346" y="414" as="sourcePoint" />
            <mxPoint x="250" y="414" as="targetPoint" />
            <Array as="points">
              <mxPoint x="520" y="354" />
              <mxPoint x="420" y="794" />
              <mxPoint x="30" y="694" />
              <mxPoint x="260" y="764" />
            </Array>
          </mxGeometry>
        </mxCell>
        <mxCell id="FgHdjAljMrV4In-tT4Xe-35" value="" style="edgeStyle=entityRelationEdgeStyle;fontSize=12;html=1;endArrow=ERzeroToMany;startArrow=ERmandOne;rounded=0;exitX=1;exitY=0.5;exitDx=0;exitDy=0;entryX=0;entryY=0.25;entryDx=0;entryDy=0;" parent="1" source="OMd99WBptiYvRUhkTEVc-6" target="aN3tKXzC04nfqiko4ayI-13" edge="1">
          <mxGeometry width="100" height="100" relative="1" as="geometry">
            <mxPoint x="250" y="254" as="sourcePoint" />
            <mxPoint x="250" y="392" as="targetPoint" />
            <Array as="points">
              <mxPoint x="330" y="114" />
              <mxPoint x="110" y="274" />
              <mxPoint x="120" y="214" />
              <mxPoint x="220" y="114" />
              <mxPoint x="290" y="344" />
              <mxPoint x="340" y="234" />
              <mxPoint x="220" y="174" />
            </Array>
          </mxGeometry>
        </mxCell>
        <mxCell id="FgHdjAljMrV4In-tT4Xe-36" value="" style="edgeStyle=entityRelationEdgeStyle;fontSize=12;html=1;endArrow=ERzeroToMany;startArrow=ERmandOne;rounded=0;exitX=0;exitY=0.5;exitDx=0;exitDy=0;" parent="1" source="QXYICF7PTkV1159MdvVa-26" target="KzbnJ2MluUfqUTI1xRZA-1" edge="1">
          <mxGeometry width="100" height="100" relative="1" as="geometry">
            <mxPoint x="110" y="302" as="sourcePoint" />
            <mxPoint x="50" y="224" as="targetPoint" />
            <Array as="points">
              <mxPoint x="340" y="-221" />
              <mxPoint x="120" y="-61" />
              <mxPoint x="130" y="-121" />
              <mxPoint x="230" y="-221" />
              <mxPoint x="300" y="9" />
              <mxPoint x="350" y="-101" />
              <mxPoint x="230" y="-161" />
            </Array>
          </mxGeometry>
        </mxCell>
        <mxCell id="FgHdjAljMrV4In-tT4Xe-38" value="" style="edgeStyle=entityRelationEdgeStyle;fontSize=12;html=1;endArrow=ERzeroToMany;startArrow=ERmandOne;rounded=0;exitX=0;exitY=0.5;exitDx=0;exitDy=0;" parent="1" source="QXYICF7PTkV1159MdvVa-27" target="aN3tKXzC04nfqiko4ayI-12" edge="1">
          <mxGeometry width="100" height="100" relative="1" as="geometry">
            <mxPoint x="30" y="624" as="sourcePoint" />
            <mxPoint x="40" y="759" as="targetPoint" />
            <Array as="points">
              <mxPoint x="350" y="-211" />
              <mxPoint x="130" y="-51" />
              <mxPoint x="140" y="-111" />
              <mxPoint x="240" y="-211" />
              <mxPoint x="310" y="19" />
              <mxPoint x="360" y="-91" />
              <mxPoint x="240" y="-151" />
            </Array>
          </mxGeometry>
        </mxCell>
        <mxCell id="FgHdjAljMrV4In-tT4Xe-40" value="" style="edgeStyle=entityRelationEdgeStyle;fontSize=12;html=1;endArrow=ERzeroToMany;startArrow=ERmandOne;rounded=0;entryX=1;entryY=0.5;entryDx=0;entryDy=0;exitX=0;exitY=0.25;exitDx=0;exitDy=0;" parent="1" source="aN3tKXzC04nfqiko4ayI-14" target="TVFickZUcTSvTu-Gqf_E-2" edge="1">
          <mxGeometry width="100" height="100" relative="1" as="geometry">
            <mxPoint x="486" y="414" as="sourcePoint" />
            <mxPoint x="590" y="289" as="targetPoint" />
            <Array as="points">
              <mxPoint x="260" y="404" />
              <mxPoint x="260" y="464" />
              <mxPoint x="360" y="594" />
            </Array>
          </mxGeometry>
        </mxCell>
        <mxCell id="83iT9Pvqcuz7-H35d_fx-4" value="" style="edgeStyle=entityRelationEdgeStyle;fontSize=12;html=1;endArrow=ERzeroToMany;startArrow=ERmandOne;rounded=0;exitX=1;exitY=0.5;exitDx=0;exitDy=0;" parent="1" source="OMd99WBptiYvRUhkTEVc-5" target="aN3tKXzC04nfqiko4ayI-22" edge="1">
          <mxGeometry width="100" height="100" relative="1" as="geometry">
            <mxPoint x="460" y="765" as="sourcePoint" />
            <mxPoint x="460" y="855" as="targetPoint" />
            <Array as="points">
              <mxPoint x="230" y="449" />
              <mxPoint x="230" y="509" />
              <mxPoint x="330" y="639" />
            </Array>
          </mxGeometry>
        </mxCell>
        <mxCell id="83iT9Pvqcuz7-H35d_fx-5" value="" style="edgeStyle=entityRelationEdgeStyle;fontSize=12;html=1;endArrow=ERzeroToMany;startArrow=ERmandOne;rounded=0;exitX=0;exitY=0.5;exitDx=0;exitDy=0;" parent="1" source="OMd99WBptiYvRUhkTEVc-10" target="aN3tKXzC04nfqiko4ayI-22" edge="1">
          <mxGeometry width="100" height="100" relative="1" as="geometry">
            <mxPoint x="170" y="425" as="sourcePoint" />
            <mxPoint x="320" y="590" as="targetPoint" />
            <Array as="points">
              <mxPoint x="240" y="459" />
              <mxPoint x="240" y="519" />
              <mxPoint x="340" y="649" />
            </Array>
          </mxGeometry>
        </mxCell>
        <mxCell id="cc5E_SOoh_sb-dHf8MoO-3" value="" style="edgeStyle=entityRelationEdgeStyle;fontSize=12;html=1;endArrow=ERoneToMany;startArrow=ERmandOne;rounded=0;exitX=1;exitY=0.5;exitDx=0;exitDy=0;" parent="1" source="QXYICF7PTkV1159MdvVa-27" target="aN3tKXzC04nfqiko4ayI-15" edge="1">
          <mxGeometry width="100" height="100" relative="1" as="geometry">
            <mxPoint x="697" y="700" as="sourcePoint" />
            <mxPoint x="461" y="731" as="targetPoint" />
            <Array as="points">
              <mxPoint x="530" y="364" />
              <mxPoint x="430" y="804" />
              <mxPoint x="40" y="704" />
              <mxPoint x="270" y="774" />
            </Array>
          </mxGeometry>
        </mxCell>
        <mxCell id="mw9f9ipdXYh-Zcs6xD-f-3" value="" style="edgeStyle=entityRelationEdgeStyle;fontSize=12;html=1;endArrow=ERzeroToMany;startArrow=ERmandOne;rounded=0;exitX=1;exitY=0.5;exitDx=0;exitDy=0;" parent="1" source="QXYICF7PTkV1159MdvVa-7" target="aN3tKXzC04nfqiko4ayI-9" edge="1">
          <mxGeometry width="100" height="100" relative="1" as="geometry">
            <mxPoint x="831" y="275" as="sourcePoint" />
            <mxPoint x="837" y="655" as="targetPoint" />
            <Array as="points">
              <mxPoint x="660" y="300" />
              <mxPoint x="550" y="300" />
              <mxPoint x="670" y="420" />
              <mxPoint x="550" y="360" />
            </Array>
          </mxGeometry>
        </mxCell>
        <mxCell id="nCKvvS10q3X2A3Tc1w5N-1" value="question" style="swimlane;fontStyle=0;childLayout=stackLayout;horizontal=1;startSize=30;horizontalStack=0;resizeParent=1;resizeParentMax=0;resizeLast=0;collapsible=1;marginBottom=0;whiteSpace=wrap;html=1;" parent="1" vertex="1">
          <mxGeometry x="1071" y="30" width="140" height="90" as="geometry" />
        </mxCell>
        <mxCell id="nCKvvS10q3X2A3Tc1w5N-7" value="text&lt;span style=&quot;color: rgba(0, 0, 0, 0); font-family: monospace; font-size: 0px; text-wrap-mode: nowrap;&quot;&gt;%3CmxGraphModel%3E%3Croot%3E%3CmxCell%20id%3D%220%22%2F%3E%3CmxCell%20id%3D%221%22%20parent%3D%220%22%2F%3E%3CmxCell%20id%3D%222%22%20value%3D%22exam_result%22%20style%3D%22text%3BstrokeColor%3Dnone%3BfillColor%3Dnone%3Balign%3Dleft%3BverticalAlign%3Dmiddle%3BspacingLeft%3D4%3BspacingRight%3D4%3Boverflow%3Dhidden%3Bpoints%3D%5B%5B0%2C0.5%5D%2C%5B1%2C0.5%5D%5D%3BportConstraint%3Deastwest%3Brotatable%3D0%3BwhiteSpace%3Dwrap%3Bhtml%3D1%3B%22%20vertex%3D%221%22%20parent%3D%221%22%3E%3CmxGeometry%20x%3D%22678%22%20y%3D%22140%22%20width%3D%22140%22%20height%3D%2230%22%20as%3D%22geometry%22%2F%3E%3C%2FmxCell%3E%3C%2Froot%3E%3C%2FmxGraphModel%3E&lt;/span&gt;" style="text;strokeColor=none;fillColor=none;align=left;verticalAlign=middle;spacingLeft=4;spacingRight=4;overflow=hidden;points=[[0,0.5],[1,0.5]];portConstraint=eastwest;rotatable=0;whiteSpace=wrap;html=1;" parent="nCKvvS10q3X2A3Tc1w5N-1" vertex="1">
          <mxGeometry y="30" width="140" height="30" as="geometry" />
        </mxCell>
        <mxCell id="O84bT_yi3YElfQdIusO5-2" value="photo_file_path" style="text;strokeColor=none;fillColor=none;align=left;verticalAlign=middle;spacingLeft=4;spacingRight=4;overflow=hidden;points=[[0,0.5],[1,0.5]];portConstraint=eastwest;rotatable=0;whiteSpace=wrap;html=1;" vertex="1" parent="nCKvvS10q3X2A3Tc1w5N-1">
          <mxGeometry y="60" width="140" height="30" as="geometry" />
        </mxCell>
        <mxCell id="nCKvvS10q3X2A3Tc1w5N-3" value="answer" style="swimlane;fontStyle=0;childLayout=stackLayout;horizontal=1;startSize=30;horizontalStack=0;resizeParent=1;resizeParentMax=0;resizeLast=0;collapsible=1;marginBottom=0;whiteSpace=wrap;html=1;" parent="1" vertex="1">
          <mxGeometry x="1071" y="146" width="140" height="120" as="geometry" />
        </mxCell>
        <mxCell id="nCKvvS10q3X2A3Tc1w5N-4" value="text&lt;span style=&quot;color: rgba(0, 0, 0, 0); font-family: monospace; font-size: 0px; text-wrap-mode: nowrap;&quot;&gt;%3CmxGraphModel%3E%3Croot%3E%3CmxCell%20id%3D%220%22%2F%3E%3CmxCell%20id%3D%221%22%20parent%3D%220%22%2F%3E%3CmxCell%20id%3D%222%22%20value%3D%22exam_result%22%20style%3D%22text%3BstrokeColor%3Dnone%3BfillColor%3Dnone%3Balign%3Dleft%3BverticalAlign%3Dmiddle%3BspacingLeft%3D4%3BspacingRight%3D4%3Boverflow%3Dhidden%3Bpoints%3D%5B%5B0%2C0.5%5D%2C%5B1%2C0.5%5D%5D%3BportConstraint%3Deastwest%3Brotatable%3D0%3BwhiteSpace%3Dwrap%3Bhtml%3D1%3B%22%20vertex%3D%221%22%20parent%3D%221%22%3E%3CmxGeometry%20x%3D%22678%22%20y%3D%22140%22%20width%3D%22140%22%20height%3D%2230%22%20as%3D%22geometry%22%2F%3E%3C%2FmxCell%3E%3C%2Froot%3E%3C%2FmxGraphModel%3E&lt;/span&gt;" style="text;strokeColor=none;fillColor=none;align=left;verticalAlign=middle;spacingLeft=4;spacingRight=4;overflow=hidden;points=[[0,0.5],[1,0.5]];portConstraint=eastwest;rotatable=0;whiteSpace=wrap;html=1;" parent="nCKvvS10q3X2A3Tc1w5N-3" vertex="1">
          <mxGeometry y="30" width="140" height="30" as="geometry" />
        </mxCell>
        <mxCell id="O84bT_yi3YElfQdIusO5-1" value="photo_file_path" style="text;strokeColor=none;fillColor=none;align=left;verticalAlign=middle;spacingLeft=4;spacingRight=4;overflow=hidden;points=[[0,0.5],[1,0.5]];portConstraint=eastwest;rotatable=0;whiteSpace=wrap;html=1;" vertex="1" parent="nCKvvS10q3X2A3Tc1w5N-3">
          <mxGeometry y="60" width="140" height="30" as="geometry" />
        </mxCell>
        <mxCell id="nCKvvS10q3X2A3Tc1w5N-6" value="is_correct" style="text;strokeColor=none;fillColor=none;align=left;verticalAlign=middle;spacingLeft=4;spacingRight=4;overflow=hidden;points=[[0,0.5],[1,0.5]];portConstraint=eastwest;rotatable=0;whiteSpace=wrap;html=1;" parent="nCKvvS10q3X2A3Tc1w5N-3" vertex="1">
          <mxGeometry y="90" width="140" height="30" as="geometry" />
        </mxCell>
        <mxCell id="nCKvvS10q3X2A3Tc1w5N-9" value="" style="edgeStyle=entityRelationEdgeStyle;fontSize=12;html=1;endArrow=ERoneToMany;startArrow=ERmandOne;rounded=0;" parent="1" source="nCKvvS10q3X2A3Tc1w5N-1" target="nCKvvS10q3X2A3Tc1w5N-3" edge="1">
          <mxGeometry width="100" height="100" relative="1" as="geometry">
            <mxPoint x="1104" y="547" as="sourcePoint" />
            <mxPoint x="1204" y="447" as="targetPoint" />
          </mxGeometry>
        </mxCell>
        <mxCell id="nCKvvS10q3X2A3Tc1w5N-11" value="theory_exam_result" style="swimlane;fontStyle=0;childLayout=stackLayout;horizontal=1;startSize=30;horizontalStack=0;resizeParent=1;resizeParentMax=0;resizeLast=0;collapsible=1;marginBottom=0;whiteSpace=wrap;html=1;" parent="1" vertex="1">
          <mxGeometry x="871" y="110" width="140" height="60" as="geometry" />
        </mxCell>
        <mxCell id="nCKvvS10q3X2A3Tc1w5N-33" value="&lt;span style=&quot;color: rgba(0, 0, 0, 0); font-family: monospace; font-size: 0px; text-wrap-mode: nowrap;&quot;&gt;%3CmxGraphModel%3E%3Croot%3E%3CmxCell%20id%3D%220%22%2F%3E%3CmxCell%20id%3D%221%22%20parent%3D%220%22%2F%3E%3CmxCell%20id%3D%222%22%20value%3D%22datetime%22%20style%3D%22text%3BstrokeColor%3Dnone%3BfillColor%3Dnone%3Balign%3Dleft%3BverticalAlign%3Dmiddle%3BspacingLeft%3D4%3BspacingRight%3D4%3Boverflow%3Dhidden%3Bpoints%3D%5B%5B0%2C0.5%5D%2C%5B1%2C0.5%5D%5D%3BportConstraint%3Deastwest%3Brotatable%3D0%3BwhiteSpace%3Dwrap%3Bhtml%3D1%3B%22%20vertex%3D%221%22%20parent%3D%221%22%3E%3CmxGeometry%20x%3D%22480%22%20y%3D%22147%22%20width%3D%22140%22%20height%3D%2230%22%20as%3D%22geometry%22%2F%3E%3C%2FmxCell%3E%3C%2Froot%3E%3C%2FmxGraphModel%3E&lt;/span&gt;" style="text;strokeColor=none;fillColor=none;align=left;verticalAlign=middle;spacingLeft=4;spacingRight=4;overflow=hidden;points=[[0,0.5],[1,0.5]];portConstraint=eastwest;rotatable=0;whiteSpace=wrap;html=1;" parent="nCKvvS10q3X2A3Tc1w5N-11" vertex="1">
          <mxGeometry y="30" width="140" height="30" as="geometry" />
        </mxCell>
        <mxCell id="nCKvvS10q3X2A3Tc1w5N-13" value="" style="edgeStyle=entityRelationEdgeStyle;fontSize=12;html=1;endArrow=ERoneToMany;startArrow=ERmandOne;rounded=0;" parent="1" source="aN3tKXzC04nfqiko4ayI-35" target="nCKvvS10q3X2A3Tc1w5N-11" edge="1">
          <mxGeometry width="100" height="100" relative="1" as="geometry">
            <mxPoint x="820" y="128" as="sourcePoint" />
            <mxPoint x="920" y="220" as="targetPoint" />
            <Array as="points">
              <mxPoint x="950" y="-311" />
              <mxPoint x="850" y="129" />
              <mxPoint x="460" y="29" />
              <mxPoint x="690" y="99" />
            </Array>
          </mxGeometry>
        </mxCell>
        <mxCell id="nCKvvS10q3X2A3Tc1w5N-14" value="" style="edgeStyle=entityRelationEdgeStyle;fontSize=12;html=1;endArrow=ERoneToMany;startArrow=ERmandOne;rounded=0;entryX=1.007;entryY=0.267;entryDx=0;entryDy=0;entryPerimeter=0;" parent="1" source="nCKvvS10q3X2A3Tc1w5N-1" target="nCKvvS10q3X2A3Tc1w5N-11" edge="1">
          <mxGeometry width="100" height="100" relative="1" as="geometry">
            <mxPoint x="1032" y="146" as="sourcePoint" />
            <mxPoint x="992.8400000000001" y="145.42000000000007" as="targetPoint" />
            <Array as="points">
              <mxPoint x="934" y="-331" />
              <mxPoint x="834" y="109" />
              <mxPoint x="444" y="9" />
              <mxPoint x="674" y="79" />
              <mxPoint x="952" y="146" />
            </Array>
          </mxGeometry>
        </mxCell>
        <mxCell id="nCKvvS10q3X2A3Tc1w5N-32" value="" style="edgeStyle=entityRelationEdgeStyle;fontSize=12;html=1;endArrow=ERoneToMany;startArrow=ERmandOne;rounded=0;" parent="1" source="nCKvvS10q3X2A3Tc1w5N-3" target="nCKvvS10q3X2A3Tc1w5N-33" edge="1">
          <mxGeometry width="100" height="100" relative="1" as="geometry">
            <mxPoint x="1012" y="156" as="sourcePoint" />
            <mxPoint x="1022" y="296" as="targetPoint" />
            <Array as="points">
              <mxPoint x="874" y="-195.5" />
              <mxPoint x="774" y="244.5" />
              <mxPoint x="384" y="144.5" />
              <mxPoint x="614" y="214.5" />
              <mxPoint x="892" y="281.5" />
            </Array>
          </mxGeometry>
        </mxCell>
      </root>
    </mxGraphModel>
  </diagram>
</mxfile>
